<svg width="89" height="20" viewBox="0 0 89 20" fill="none" xmlns="http://www.w3.org/2000/svg">
<path d="M1.25178 14.6938C0.838646 14.6938 0.63208 14.579 0.63208 14.3495C0.63208 14.1134 0.769791 13.9954 1.04521 13.9954C1.45834 13.9954 1.75016 13.9331 1.92066 13.8085C2.2551 13.5659 2.45183 13.1494 2.51084 12.5593C2.52396 12.4216 2.53708 12.2117 2.55019 11.9297C2.56986 11.6477 2.58954 11.3199 2.60921 10.9461C2.63544 10.5657 2.65839 10.1493 2.67806 9.69685C2.69774 9.23782 2.71741 8.76894 2.73708 8.29024C2.76331 7.80497 2.78627 7.31971 2.80594 6.83444C2.82561 6.34917 2.84201 5.88686 2.85512 5.4475C2.88791 4.35237 2.9043 3.66054 2.9043 3.37201C2.9043 3.08347 2.88135 2.85723 2.83545 2.69329C2.7961 2.52935 2.73708 2.39492 2.65839 2.28999C2.51412 2.10638 2.28133 1.99162 1.96 1.94572C1.39605 1.86703 1.11407 1.74571 1.11407 1.58177C1.11407 1.47029 1.15341 1.38176 1.2321 1.31618C1.31735 1.24405 1.42555 1.20798 1.55671 1.20798L3.10103 1.34569L3.96664 1.30635C4.12402 1.30635 4.25518 1.3752 4.3601 1.51291C4.46502 1.64407 4.58306 1.8408 4.71421 2.1031L9.47506 11.9691C9.58654 11.7133 9.73409 11.3756 9.9177 10.9559C10.1013 10.5362 10.3013 10.0706 10.5177 9.55914C10.7407 9.04764 10.9768 8.50664 11.226 7.93612C11.4751 7.36561 11.7211 6.79837 11.9637 6.23442C12.2063 5.67046 12.4391 5.12945 12.6621 4.6114C12.885 4.09335 13.0818 3.63431 13.2523 3.23429C13.4228 2.82772 13.5638 2.49656 13.6752 2.24081C13.7867 1.98506 13.8621 1.80473 13.9015 1.69981C13.9474 1.58833 14.0326 1.48668 14.1572 1.39488C14.2818 1.30307 14.4294 1.25717 14.5999 1.25717L15.5245 1.29651L16.7049 1.20798C17.1967 1.20798 17.4426 1.3293 17.4426 1.57193C17.4426 1.68997 17.3344 1.77194 17.118 1.81784C16.9016 1.85719 16.718 1.89326 16.5672 1.92605C16.4163 1.95883 16.2753 2.00802 16.1442 2.07359C15.8425 2.23753 15.6917 2.50968 15.6917 2.89002L16.1934 12.5199C16.2458 13.3659 16.5639 13.8446 17.1475 13.956C17.3114 13.9823 17.4721 13.9954 17.6295 13.9954C17.9115 13.9954 18.0525 14.1134 18.0525 14.3495C18.0525 14.579 17.8459 14.6938 17.4328 14.6938C17.2688 14.6938 17.1278 14.6839 17.0098 14.6643C16.8918 14.6511 16.7737 14.638 16.6557 14.6249C16.3016 14.5725 15.9802 14.5462 15.6917 14.5462L13.5965 14.6938C13.1703 14.6938 12.9572 14.5725 12.9572 14.3298C12.9572 14.1265 13.1113 14.0249 13.4195 14.0249C13.7277 14.0249 13.9507 14.0019 14.0884 13.956C14.2326 13.9036 14.3376 13.8249 14.4031 13.72C14.4949 13.5626 14.5408 13.1921 14.5408 12.6084V11.6838C14.5408 11.2379 14.5081 10.3329 14.4425 8.96895C14.3769 7.60496 14.331 6.63115 14.3048 6.04752C14.2523 4.81469 14.2031 3.88022 14.1572 3.24413L9.50457 13.9069C9.33407 14.2938 9.17997 14.4872 9.04226 14.4872C8.95045 14.4872 8.87176 14.4413 8.80618 14.3495C8.74716 14.2511 8.66519 14.097 8.56027 13.8872L3.79942 4.08023C3.55023 7.41807 3.42564 10.4707 3.42564 13.238C3.42564 13.7757 3.86172 14.0446 4.73389 14.0446C4.96996 14.0446 5.088 14.1397 5.088 14.3298C5.088 14.5725 4.87487 14.6938 4.44863 14.6938L2.85512 14.5462C2.52068 14.5462 2.20591 14.5692 1.91082 14.6151C1.61573 14.6675 1.39605 14.6938 1.25178 14.6938Z" fill="white"/>
<path d="M26.5429 5.34913C26.8118 5.34913 26.9462 5.4311 26.9462 5.59505C26.9462 5.73276 26.8216 5.84752 26.5724 5.93932C26.3298 6.02457 26.1429 6.10654 26.0117 6.18523C25.8806 6.25737 25.7593 6.36229 25.6478 6.5C25.4183 6.78198 25.1756 7.27052 24.9199 7.96563L23.4444 11.9789C22.1788 15.4282 21.264 17.5037 20.7 18.2054C20.1426 18.9136 19.4803 19.2677 18.7131 19.2677C18.1819 19.2677 17.7983 19.1956 17.5622 19.0513C17.1687 18.8021 16.972 18.5464 16.972 18.2841C16.972 18.1005 17.0376 17.9496 17.1687 17.8316C17.3852 17.6283 17.5819 17.5267 17.7589 17.5267C17.9426 17.5267 18.1032 17.5562 18.2409 17.6152C18.3786 17.6808 18.5098 17.7496 18.6344 17.8218C18.7655 17.9005 18.8836 17.9693 18.9885 18.0283C19.0934 18.0939 19.1885 18.1267 19.2738 18.1267C19.359 18.1267 19.4475 18.1201 19.5393 18.107C19.6377 18.0939 19.7426 18.048 19.8541 17.9693C19.9656 17.8972 20.0869 17.7824 20.2181 17.625C20.3492 17.4677 20.4935 17.248 20.6509 16.966C20.9984 16.3299 21.3886 15.4315 21.8214 14.2708C21.5394 14.061 21.0935 13.3036 20.4836 11.9986L18.3098 7.19839C18.1131 6.77214 17.9622 6.5 17.8573 6.38196C17.6868 6.16556 17.4573 6.02457 17.1687 5.959C16.8868 5.88686 16.7458 5.76227 16.7458 5.58521C16.7458 5.52619 16.7818 5.47373 16.854 5.42783C16.9196 5.37537 17.0179 5.34913 17.1491 5.34913L18.6737 5.45734C19.0737 5.45734 19.3754 5.44422 19.5787 5.41799C19.9262 5.37209 20.2115 5.34913 20.4345 5.34913C20.8804 5.34913 21.1033 5.44422 21.1033 5.63439C21.1033 5.83112 20.841 5.9426 20.3164 5.96883C19.982 5.9885 19.7918 6.07703 19.7459 6.23442C19.7328 6.28032 19.7262 6.3295 19.7262 6.38196C19.7262 6.46721 19.8246 6.72296 20.0213 7.14921L22.4214 12.5691C22.428 12.5691 22.4313 12.5625 22.4313 12.5494C22.4313 12.5363 22.4345 12.5232 22.4411 12.5101L24.1133 7.58201C24.2117 7.28692 24.2936 7.04428 24.3592 6.85411C24.4313 6.65738 24.4674 6.49344 24.4674 6.36229C24.4674 6.22458 24.4215 6.12949 24.3297 6.07703C24.2379 6.02457 24.0608 5.9885 23.7985 5.96883C23.3067 5.92293 23.0608 5.80817 23.0608 5.62456C23.0608 5.44094 23.2838 5.34913 23.7297 5.34913L25.4019 5.4475L26.5429 5.34913Z" fill="white"/>
<path d="M28.856 14.6938C28.4298 14.6938 28.2167 14.5725 28.2167 14.3298C28.2167 14.1397 28.3347 14.0446 28.5708 14.0446L29.0528 14.0938C29.4462 14.0938 29.7085 13.8741 29.8397 13.4347C29.9577 13.0609 30.0167 12.392 30.0167 11.4281V2.23098H29.7512C28.6036 2.23098 27.6888 2.34901 27.0068 2.58509C26.5346 2.75559 26.2133 3.0474 26.0428 3.46053C25.9182 3.76219 25.7871 3.91301 25.6494 3.91301C25.4592 3.91301 25.3641 3.80153 25.3641 3.57857C25.3641 3.51299 25.3772 3.43758 25.4034 3.35233C25.4362 3.26708 25.4723 3.16544 25.5116 3.0474C25.6166 2.73264 25.6789 2.40475 25.6985 2.06376C25.7182 1.72276 25.7543 1.49652 25.8067 1.38504C25.8658 1.267 25.9444 1.20798 26.0428 1.20798C26.1412 1.20798 26.2297 1.21782 26.3084 1.23749C26.3871 1.25061 26.5018 1.267 26.6527 1.28668C27.0461 1.33914 27.5412 1.36537 28.138 1.36537H34.3743C34.8596 1.36537 35.2104 1.33914 35.4268 1.28668C35.6498 1.23421 35.8104 1.20798 35.9088 1.20798C36.1252 1.20798 36.2334 1.30963 36.2334 1.51291C36.2334 1.61784 36.2137 1.74243 36.1744 1.8867C36.076 2.20802 36.0104 2.48672 35.9776 2.7228C35.9514 2.95232 35.9252 3.14249 35.8989 3.29331C35.8727 3.43758 35.8432 3.55234 35.8104 3.63759C35.758 3.78186 35.6793 3.85399 35.5743 3.85399C35.4694 3.85399 35.4006 3.81793 35.3678 3.74579C35.3416 3.6671 35.312 3.51955 35.2793 3.30315C35.2465 3.08675 35.1907 2.90969 35.112 2.77198C35.0333 2.63427 34.9284 2.52607 34.7973 2.44738C34.5678 2.30311 34.194 2.23098 33.6759 2.23098H31.5611V11.4281C31.5611 12.4183 31.6037 13.0576 31.6889 13.3462C31.7808 13.6282 31.889 13.8249 32.0135 13.9364C32.1447 14.0413 32.3152 14.0938 32.525 14.0938L32.9972 14.0446C33.2333 14.0446 33.3513 14.1397 33.3513 14.3298C33.3513 14.5725 33.1415 14.6938 32.7218 14.6938C32.5054 14.6938 32.2759 14.6741 32.0332 14.6348C31.2463 14.5102 30.5709 14.4872 30.0069 14.5659C29.4495 14.6511 29.0659 14.6938 28.856 14.6938Z" fill="white"/>
<path d="M37.1596 13.4445C36.7792 13.0183 36.4842 12.5166 36.2743 11.9396C36.071 11.3625 35.9694 10.7231 35.9694 10.0215C35.9694 9.31323 36.0907 8.66402 36.3333 8.07383C36.576 7.48365 36.9104 6.97871 37.3367 6.55902C38.2219 5.68685 39.3138 5.25077 40.6122 5.25077C41.6876 5.25077 42.5565 5.60488 43.2189 6.31311C43.8484 6.9951 44.1632 7.83776 44.1632 8.84108C44.1632 9.16896 44.1173 9.3952 44.0254 9.51979C43.9402 9.63783 43.832 9.70997 43.7008 9.7362C43.5697 9.75587 43.3894 9.77554 43.1598 9.79522C42.9303 9.80833 42.6516 9.82473 42.3237 9.8444C41.9959 9.86407 41.6286 9.88374 41.2221 9.90342C40.822 9.92309 40.4122 9.94604 39.9925 9.97227C39.0285 10.0313 38.2547 10.0903 37.6711 10.1493C37.8154 11.9133 38.4908 13.0576 39.6974 13.5823C40.0909 13.7528 40.5105 13.838 40.9565 13.838C41.9008 13.838 42.6483 13.5626 43.1992 13.0117C43.4353 12.7757 43.6156 12.6576 43.7402 12.6576C43.9763 12.6576 44.0943 12.7986 44.0943 13.0806C44.0943 13.2249 43.9959 13.3986 43.7992 13.6019C43.6025 13.8052 43.3205 14.0151 42.9533 14.2315C42.3041 14.6052 41.5467 14.7921 40.681 14.7921C39.8154 14.7921 39.1072 14.6741 38.5564 14.438C38.0121 14.1954 37.5465 13.8642 37.1596 13.4445ZM37.6514 9.42143C40.727 9.26405 42.3467 9.09683 42.5106 8.91977C42.5696 8.85419 42.5992 8.66074 42.5992 8.33942C42.5992 8.01809 42.5369 7.70661 42.4123 7.40496C42.2877 7.09675 42.1205 6.83444 41.9106 6.61804C41.4778 6.17868 40.9401 5.959 40.2974 5.959C39.5695 5.959 38.9564 6.26393 38.458 6.87379C37.9334 7.50988 37.6645 8.35909 37.6514 9.42143Z" fill="white"/>
<path d="M45.0598 14.0151C44.7582 13.7987 44.5221 13.5626 44.3516 13.3068C44.1811 13.0445 44.0959 12.8412 44.0959 12.697C44.0959 12.5461 44.1155 12.4347 44.1549 12.3625C44.2008 12.2838 44.2598 12.2117 44.3319 12.1461C44.5024 11.9822 44.6664 11.9002 44.8238 11.9002C44.9877 11.9002 45.1123 11.9396 45.1976 12.0183C45.2828 12.0904 45.3615 12.2379 45.4336 12.4609C45.5123 12.6773 45.6205 12.8871 45.7582 13.0904C45.9025 13.2937 46.073 13.4708 46.2697 13.6216C46.696 13.9429 47.2173 14.1036 47.8337 14.1036C48.378 14.1036 48.8403 13.9692 49.2207 13.7003C49.6207 13.4249 49.8207 13.0806 49.8207 12.6675C49.8207 12.2478 49.6404 11.8805 49.2797 11.5658C48.8928 11.2313 48.319 10.9133 47.5583 10.6116C46.7976 10.3034 46.2566 10.0444 45.9353 9.83456C45.614 9.62472 45.3517 9.40176 45.1484 9.16568C44.7615 8.7132 44.568 8.19515 44.568 7.61152C44.568 6.94264 44.8697 6.38524 45.473 5.93932C46.0828 5.4934 46.8468 5.27044 47.7649 5.27044C48.5583 5.27044 49.2272 5.43766 49.7715 5.7721C50.2437 6.0672 50.4797 6.37868 50.4797 6.70657C50.4797 6.87707 50.3912 7.02461 50.2142 7.14921C50.0437 7.26724 49.8797 7.32626 49.7223 7.32626C49.5715 7.32626 49.4535 7.29675 49.3682 7.23774C49.283 7.17216 49.1551 7.00822 48.9846 6.74591C48.6502 6.22786 48.1419 5.96883 47.4599 5.96883C46.6927 5.96883 46.1845 6.19835 45.9353 6.65738C45.8632 6.78854 45.8271 6.92953 45.8271 7.08035C45.8271 7.23118 45.8566 7.37872 45.9156 7.52299C45.9812 7.6607 46.0992 7.80497 46.2697 7.9558C46.6304 8.25745 47.2927 8.60828 48.2567 9.0083C50.1453 9.78866 51.0896 10.7887 51.0896 12.0084C51.0896 12.8281 50.7584 13.497 50.0961 14.0151C49.4272 14.5331 48.5682 14.7921 47.519 14.7921C46.5878 14.7921 45.7681 14.5331 45.0598 14.0151Z" fill="white"/>
<path d="M56.5996 6.24425C56.5996 6.42131 56.4947 6.50984 56.2848 6.50984L53.4913 6.48033V11.9297C53.4913 12.9462 53.7372 13.5495 54.229 13.7396C54.3798 13.7987 54.5569 13.8282 54.7602 13.8282C54.9635 13.8282 55.1471 13.7954 55.311 13.7298C55.4815 13.6577 55.6323 13.5823 55.7635 13.5036C55.8946 13.4249 56.0061 13.3527 56.0979 13.2872C56.1897 13.215 56.275 13.179 56.3537 13.179C56.4389 13.179 56.5143 13.2249 56.5799 13.3167C56.6455 13.4085 56.6783 13.5003 56.6783 13.5921C56.6783 13.8216 56.3865 14.097 55.8028 14.4184C55.3569 14.6675 54.7962 14.7921 54.1208 14.7921C53.4454 14.7921 52.9175 14.5528 52.5371 14.0741C52.1568 13.5888 51.9666 12.9199 51.9666 12.0674V6.45082H51.3666C50.8944 6.45082 50.6584 6.3295 50.6584 6.08687C50.6584 5.90981 50.7895 5.7885 51.0518 5.72292C51.3141 5.65734 51.5404 5.54258 51.7305 5.37864C51.9207 5.20815 52.0748 5.01797 52.1929 4.80813C52.3175 4.59173 52.4158 4.36877 52.4879 4.13925C52.5601 3.90973 52.6257 3.69989 52.6847 3.50972C52.8289 3.07691 52.9929 2.86051 53.1765 2.86051C53.3863 2.86051 53.4913 3.0474 53.4913 3.42119V5.64423L56.2553 5.58521C56.393 5.58521 56.5012 5.74915 56.5799 6.07703C56.593 6.14917 56.5996 6.20491 56.5996 6.24425Z" fill="white"/>
<path d="M57.6143 14.5462C57.2799 14.5462 56.9651 14.5692 56.67 14.6151C56.3815 14.6675 56.0667 14.6938 55.7257 14.6938C55.3913 14.6938 55.2241 14.5856 55.2241 14.3692C55.2241 14.1462 55.3782 14.0347 55.6864 14.0347C56.0077 14.0347 56.2372 13.9757 56.3749 13.8577C56.5979 13.6544 56.8176 13.3232 57.034 12.8642C57.2504 12.4052 57.4504 11.9756 57.634 11.5756C57.8242 11.1756 58.0406 10.71 58.2832 10.1788C58.5258 9.64111 58.7914 9.04437 59.08 8.3886C59.375 7.72628 59.6833 7.02461 60.0046 6.2836C60.844 4.33598 61.3981 3.02773 61.6669 2.35885C61.9358 1.68341 62.0834 1.30963 62.1096 1.23749C62.1424 1.16536 62.1752 1.09978 62.208 1.04076C62.2932 0.903053 62.3653 0.834198 62.4244 0.834198C62.4834 0.834198 62.5326 0.844034 62.5719 0.863707C62.6112 0.876823 62.6539 0.906332 62.6998 0.952236C62.7981 1.07683 62.8965 1.26372 62.9949 1.51291C63.0932 1.75555 63.2244 2.08671 63.3883 2.5064C63.5588 2.92609 63.7523 3.40151 63.9687 3.93268C64.1851 4.46385 64.4146 5.03437 64.6572 5.64423C64.8999 6.25409 65.1425 6.86395 65.3851 7.47381C65.6343 8.07711 65.8737 8.66402 66.1032 9.23454C66.3393 9.80505 66.5491 10.3198 66.7327 10.7789C67.2967 12.1494 67.6574 12.9691 67.8147 13.238C67.9721 13.5068 68.1033 13.6937 68.2082 13.7987C68.3721 13.956 68.6148 14.0347 68.9361 14.0347C69.2574 14.0347 69.4181 14.1462 69.4181 14.3692C69.4181 14.5856 69.2115 14.6938 68.7984 14.6938C68.6213 14.6938 68.4672 14.6839 68.3361 14.6643C68.2115 14.6511 68.0836 14.638 67.9524 14.6249C67.5721 14.5725 67.2344 14.5462 66.9393 14.5462L65.0409 14.6938C64.6146 14.6938 64.4015 14.5725 64.4015 14.3298C64.4015 14.1331 64.5195 14.0347 64.7556 14.0347L65.3458 14.1036C65.595 14.1036 65.7589 14.0511 65.8376 13.9462C65.9163 13.8347 65.9556 13.697 65.9556 13.5331C65.9556 13.2249 65.8245 12.7462 65.5622 12.0969L64.7458 10.051H59.2865C59.1291 10.4444 58.9816 10.8051 58.8439 11.133C58.7127 11.4609 58.5914 11.7789 58.4799 12.0871C58.3029 12.5855 58.2143 12.979 58.2143 13.2675C58.2143 13.5495 58.2635 13.7593 58.3619 13.897C58.4668 14.0282 58.6603 14.0938 58.9422 14.0938L59.5324 14.0446C59.7685 14.0446 59.8865 14.1397 59.8865 14.3298C59.8865 14.5725 59.6734 14.6938 59.2472 14.6938L57.6143 14.5462ZM64.4113 9.21486L62.0702 3.35233C61.6178 4.49992 60.8079 6.4541 59.6406 9.21486H64.4113Z" fill="white"/>
<path d="M68.5737 17.9988L69.4 18.0677C69.4852 18.0677 69.5541 18.048 69.6065 18.0087C69.659 17.9693 69.7016 17.8775 69.7344 17.7332C69.7934 17.4709 69.8229 16.8939 69.8229 16.002V8.47713C69.8229 7.86071 69.7738 7.4607 69.6754 7.27708C69.577 7.08691 69.4721 6.95904 69.3606 6.89346C69.2492 6.82788 69.0688 6.77542 68.8196 6.73608C68.577 6.69673 68.4557 6.59509 68.4557 6.43115C68.4557 6.28032 68.6229 6.17212 68.9573 6.10654C69.7443 5.9426 70.2853 5.77538 70.5804 5.60488C70.9804 5.38192 71.2492 5.27044 71.3869 5.27044C71.5378 5.27044 71.6132 5.34586 71.6132 5.49668C71.6132 5.56882 71.5968 5.64423 71.564 5.72292C71.5378 5.80161 71.5083 5.89342 71.4755 5.99834C71.4296 6.16884 71.3935 6.49344 71.3673 6.97215C72.1673 5.83768 73.1772 5.27044 74.3969 5.27044C75.6363 5.27044 76.6232 5.71308 77.3577 6.59837C78.0659 7.45742 78.42 8.57222 78.42 9.94276C78.42 11.2871 77.9807 12.4281 77.1019 13.3659C76.2166 14.3167 75.1215 14.7921 73.8166 14.7921C72.8723 14.7921 72.0493 14.5429 71.3476 14.0446V16.002C71.3476 17.2414 71.4001 17.9103 71.505 18.0087C71.5509 18.048 71.6099 18.0677 71.682 18.0677L73.0001 17.9595C73.1313 17.9595 73.2362 17.9988 73.3149 18.0775C73.3936 18.1628 73.4329 18.2513 73.4329 18.3431C73.4329 18.6251 73.1936 18.7661 72.7149 18.7661L70.6394 18.6185C70.3049 18.6185 69.9869 18.6415 69.6852 18.6874C69.3901 18.7398 69.118 18.7661 68.8688 18.7661C68.6196 18.7661 68.4458 18.7202 68.3475 18.6284C68.2557 18.5431 68.2098 18.4513 68.2098 18.3529C68.2098 18.2546 68.2426 18.1693 68.3081 18.0972C68.3737 18.0316 68.4622 17.9988 68.5737 17.9988ZM71.3476 12.3724C71.7345 13.1724 72.3739 13.697 73.2657 13.9462C73.5477 14.0249 73.8493 14.0642 74.1707 14.0642C74.492 14.0642 74.8133 13.9954 75.1346 13.8577C75.4625 13.7134 75.7478 13.4937 75.9904 13.1986C76.5216 12.5494 76.7872 11.6445 76.7872 10.4838C76.7872 9.19191 76.5085 8.15908 75.9511 7.38528C75.4265 6.65083 74.7674 6.2836 73.9739 6.2836C73.1608 6.2836 72.446 6.63771 71.8296 7.34594C71.6394 7.5689 71.4787 7.81809 71.3476 8.09351V12.3724Z" fill="white"/>
<path d="M78.4708 17.9988L79.297 18.0677C79.3823 18.0677 79.4511 18.048 79.5036 18.0087C79.5561 17.9693 79.5987 17.8775 79.6315 17.7332C79.6905 17.4709 79.72 16.8939 79.72 16.002V8.47713C79.72 7.86071 79.6708 7.4607 79.5725 7.27708C79.4741 7.08691 79.3692 6.95904 79.2577 6.89346C79.1462 6.82788 78.9659 6.77542 78.7167 6.73608C78.474 6.69673 78.3527 6.59509 78.3527 6.43115C78.3527 6.28032 78.52 6.17212 78.8544 6.10654C79.6413 5.9426 80.1823 5.77538 80.4774 5.60488C80.8774 5.38192 81.1463 5.27044 81.284 5.27044C81.4348 5.27044 81.5102 5.34586 81.5102 5.49668C81.5102 5.56882 81.4938 5.64423 81.4611 5.72292C81.4348 5.80161 81.4053 5.89342 81.3725 5.99834C81.3266 6.16884 81.2906 6.49344 81.2643 6.97215C82.0644 5.83768 83.0742 5.27044 84.294 5.27044C85.5333 5.27044 86.5203 5.71308 87.2547 6.59837C87.963 7.45742 88.3171 8.57222 88.3171 9.94276C88.3171 11.2871 87.8777 12.4281 86.999 13.3659C86.1137 14.3167 85.0186 14.7921 83.7136 14.7921C82.7693 14.7921 81.9463 14.5429 81.2447 14.0446V16.002C81.2447 17.2414 81.2971 17.9103 81.402 18.0087C81.4479 18.048 81.507 18.0677 81.5791 18.0677L82.8972 17.9595C83.0283 17.9595 83.1333 17.9988 83.2119 18.0775C83.2906 18.1628 83.33 18.2513 83.33 18.3431C83.33 18.6251 83.0906 18.7661 82.6119 18.7661L80.5364 18.6185C80.202 18.6185 79.8839 18.6415 79.5823 18.6874C79.2872 18.7398 79.0151 18.7661 78.7659 18.7661C78.5167 18.7661 78.3429 18.7202 78.2445 18.6284C78.1527 18.5431 78.1068 18.4513 78.1068 18.3529C78.1068 18.2546 78.1396 18.1693 78.2052 18.0972C78.2708 18.0316 78.3593 17.9988 78.4708 17.9988ZM81.2447 12.3724C81.6316 13.1724 82.2709 13.697 83.1628 13.9462C83.4447 14.0249 83.7464 14.0642 84.0677 14.0642C84.389 14.0642 84.7104 13.9954 85.0317 13.8577C85.3596 13.7134 85.6448 13.4937 85.8875 13.1986C86.4186 12.5494 86.6842 11.6445 86.6842 10.4838C86.6842 9.19191 86.4055 8.15908 85.8481 7.38528C85.3235 6.65083 84.6645 6.2836 83.871 6.2836C83.0578 6.2836 82.3431 6.63771 81.7266 7.34594C81.5365 7.5689 81.3758 7.81809 81.2447 8.09351V12.3724Z" fill="white"/>
</svg>
